# xmcd CD database file
#
# Track frame offsets:
#	150
#	22664
#	44158
#	63710
#	79218
#	97326
#	119392
#	134140
#	154280
#	172501
#	194606
#
# Disc length: 2774 seconds
#
# Revision: 0
# Processed by: cddbd v1.5.1PL0 Copyright (c) Steve Scherf et al.
# Submitted via: CDex 1.50
#
DISCID=9f0ad40b
DTITLE=Leslie Paula - Te Quiero - I Want You
DYEAR=1999
DGENRE=Salsa
TTITLE0=Domitila
TTITLE1=Adonde estas Ahora
TTITLE2=Te Quiero
TTITLE3=Si Te Vas
TTITLE4=1,2,3
TTITLE5=Quisiera ser Angel
TTITLE6=Viene y Va
TTITLE7=Que Sin Ti
TTITLE8=Agua Trae
TTITLE9=If I Were an Angel
TTITLE10=Segway - Leslie at 2 years old
EXTD=YEAR: 1999
EXTT0=
EXTT1=
EXTT2=
EXTT3=
EXTT4=
EXTT5=
EXTT6=
EXTT7=
EXTT8=
EXTT9=
EXTT10=
PLAYORDER=
